Results
version=1
nRows=4
nColumns=205
inDegrees=yes
endheader
time	/jointset/ground_pelvis/pelvis_tilt/value	/jointset/ground_pelvis/pelvis_tilt/speed	/jointset/ground_pelvis/pelvis_list/value	/jointset/ground_pelvis/pelvis_list/speed	/jointset/ground_pelvis/pelvis_rotation/value	/jointset/ground_pelvis/pelvis_rotation/speed	/jointset/ground_pelvis/pelvis_tx/value	/jointset/ground_pelvis/pelvis_tx/speed	/jointset/ground_pelvis/pelvis_ty/value	/jointset/ground_pelvis/pelvis_ty/speed	/jointset/ground_pelvis/pelvis_tz/value	/jointset/ground_pelvis/pelvis_tz/speed	/jointset/hip_r/hip_flexion_r/value	/jointset/hip_r/hip_flexion_r/speed	/jointset/hip_r/hip_adduction_r/value	/jointset/hip_r/hip_adduction_r/speed	/jointset/hip_r/hip_rotation_r/value	/jointset/hip_r/hip_rotation_r/speed	/jointset/walker_knee_r/knee_angle_r/value	/jointset/walker_knee_r/knee_angle_r/speed	/jointset/patellofemoral_r/knee_angle_r_beta/value	/jointset/patellofemoral_r/knee_angle_r_beta/speed	/jointset/ankle_r/ankle_angle_r/value	/jointset/ankle_r/ankle_angle_r/speed	/jointset/subtalar_r/subtalar_angle_r/value	/jointset/subtalar_r/subtalar_angle_r/speed	/jointset/mtp_r/mtp_angle_r/value	/jointset/mtp_r/mtp_angle_r/speed	/jointset/hip_l/hip_flexion_l/value	/jointset/hip_l/hip_flexion_l/speed	/jointset/hip_l/hip_adduction_l/value	/jointset/hip_l/hip_adduction_l/speed	/jointset/hip_l/hip_rotation_l/value	/jointset/hip_l/hip_rotation_l/speed	/jointset/walker_knee_l/knee_angle_l/value	/jointset/walker_knee_l/knee_angle_l/speed	/jointset/patellofemoral_l/knee_angle_l_beta/value	/jointset/patellofemoral_l/knee_angle_l_beta/speed	/jointset/ankle_l/ankle_angle_l/value	/jointset/ankle_l/ankle_angle_l/speed	/jointset/subtalar_l/subtalar_angle_l/value	/jointset/subtalar_l/subtalar_angle_l/speed	/jointset/mtp_l/mtp_angle_l/value	/jointset/mtp_l/mtp_angle_l/speed	/jointset/back/lumbar_extension/value	/jointset/back/lumbar_extension/speed	/jointset/back/lumbar_bending/value	/jointset/back/lumbar_bending/speed	/jointset/back/lumbar_rotation/value	/jointset/back/lumbar_rotation/speed	/jointset/acromial_r/arm_flex_r/value	/jointset/acromial_r/arm_flex_r/speed	/jointset/acromial_r/arm_add_r/value	/jointset/acromial_r/arm_add_r/speed	/jointset/acromial_r/arm_rot_r/value	/jointset/acromial_r/arm_rot_r/speed	/jointset/elbow_r/elbow_flex_r/value	/jointset/elbow_r/elbow_flex_r/speed	/jointset/radioulnar_r/pro_sup_r/value	/jointset/radioulnar_r/pro_sup_r/speed	/jointset/radius_hand_r/wrist_flex_r/value	/jointset/radius_hand_r/wrist_flex_r/speed	/jointset/radius_hand_r/wrist_dev_r/value	/jointset/radius_hand_r/wrist_dev_r/speed	/jointset/acromial_l/arm_flex_l/value	/jointset/acromial_l/arm_flex_l/speed	/jointset/acromial_l/arm_add_l/value	/jointset/acromial_l/arm_add_l/speed	/jointset/acromial_l/arm_rot_l/value	/jointset/acromial_l/arm_rot_l/speed	/jointset/elbow_l/elbow_flex_l/value	/jointset/elbow_l/elbow_flex_l/speed	/jointset/radioulnar_l/pro_sup_l/value	/jointset/radioulnar_l/pro_sup_l/speed	/jointset/radius_hand_l/wrist_flex_l/value	/jointset/radius_hand_l/wrist_flex_l/speed	/jointset/radius_hand_l/wrist_dev_l/value	/jointset/radius_hand_l/wrist_dev_l/speed	/forceset/addbrev_r/activation	/forceset/addlong_r/activation	/forceset/addlong_r/fiber_length	/forceset/addmagDist_r/activation	/forceset/addmagIsch_r/activation	/forceset/addmagIsch_r/fiber_length	/forceset/addmagMid_r/activation	/forceset/addmagProx_r/activation	/forceset/bflh_r/activation	/forceset/bflh_r/fiber_length	/forceset/bfsh_r/activation	/forceset/edl_r/activation	/forceset/edl_r/fiber_length	/forceset/ehl_r/activation	/forceset/ehl_r/fiber_length	/forceset/fdl_r/activation	/forceset/fdl_r/fiber_length	/forceset/fhl_r/activation	/forceset/fhl_r/fiber_length	/forceset/gaslat_r/activation	/forceset/gaslat_r/fiber_length	/forceset/gasmed_r/activation	/forceset/gasmed_r/fiber_length	/forceset/glmax1_r/activation	/forceset/glmax2_r/activation	/forceset/glmax3_r/activation	/forceset/glmed1_r/activation	/forceset/glmed2_r/activation	/forceset/glmed3_r/activation	/forceset/glmin1_r/activation	/forceset/glmin2_r/activation	/forceset/glmin3_r/activation	/forceset/glmin3_r/fiber_length	/forceset/grac_r/activation	/forceset/iliacus_r/activation	/forceset/perbrev_r/activation	/forceset/perbrev_r/fiber_length	/forceset/perlong_r/activation	/forceset/perlong_r/fiber_length	/forceset/piri_r/activation	/forceset/piri_r/fiber_length	/forceset/psoas_r/activation	/forceset/recfem_r/activation	/forceset/recfem_r/fiber_length	/forceset/sart_r/activation	/forceset/semimem_r/activation	/forceset/semimem_r/fiber_length	/forceset/semiten_r/activation	/forceset/semiten_r/fiber_length	/forceset/soleus_r/activation	/forceset/soleus_r/fiber_length	/forceset/tfl_r/activation	/forceset/tfl_r/fiber_length	/forceset/tibant_r/activation	/forceset/tibant_r/fiber_length	/forceset/tibpost_r/activation	/forceset/tibpost_r/fiber_length	/forceset/vasint_r/activation	/forceset/vasint_r/fiber_length	/forceset/vaslat_r/activation	/forceset/vaslat_r/fiber_length	/forceset/vasmed_r/activation	/forceset/vasmed_r/fiber_length	/forceset/addbrev_l/activation	/forceset/addlong_l/activation	/forceset/addlong_l/fiber_length	/forceset/addmagDist_l/activation	/forceset/addmagIsch_l/activation	/forceset/addmagIsch_l/fiber_length	/forceset/addmagMid_l/activation	/forceset/addmagProx_l/activation	/forceset/bflh_l/activation	/forceset/bflh_l/fiber_length	/forceset/bfsh_l/activation	/forceset/edl_l/activation	/forceset/edl_l/fiber_length	/forceset/ehl_l/activation	/forceset/ehl_l/fiber_length	/forceset/fdl_l/activation	/forceset/fdl_l/fiber_length	/forceset/fhl_l/activation	/forceset/fhl_l/fiber_length	/forceset/gaslat_l/activation	/forceset/gaslat_l/fiber_length	/forceset/gasmed_l/activation	/forceset/gasmed_l/fiber_length	/forceset/glmax1_l/activation	/forceset/glmax2_l/activation	/forceset/glmax3_l/activation	/forceset/glmed1_l/activation	/forceset/glmed2_l/activation	/forceset/glmed3_l/activation	/forceset/glmin1_l/activation	/forceset/glmin2_l/activation	/forceset/glmin3_l/activation	/forceset/glmin3_l/fiber_length	/forceset/grac_l/activation	/forceset/iliacus_l/activation	/forceset/perbrev_l/activation	/forceset/perbrev_l/fiber_length	/forceset/perlong_l/activation	/forceset/perlong_l/fiber_length	/forceset/piri_l/activation	/forceset/piri_l/fiber_length	/forceset/psoas_l/activation	/forceset/recfem_l/activation	/forceset/recfem_l/fiber_length	/forceset/sart_l/activation	/forceset/semimem_l/activation	/forceset/semimem_l/fiber_length	/forceset/semiten_l/activation	/forceset/semiten_l/fiber_length	/forceset/soleus_l/activation	/forceset/soleus_l/fiber_length	/forceset/tfl_l/activation	/forceset/tfl_l/fiber_length	/forceset/tibant_l/activation	/forceset/tibant_l/fiber_length	/forceset/tibpost_l/activation	/forceset/tibpost_l/fiber_length	/forceset/vasint_l/activation	/forceset/vasint_l/fiber_length	/forceset/vaslat_l/activation	/forceset/vaslat_l/fiber_length	/forceset/vasmed_l/activation	/forceset/vasmed_l/fiber_length
      0.08173565	     11.94318792	    165.73067974	     -1.17093262	      8.33444388	      5.68946839	    112.72283337	      0.00165369	      0.01227589	      0.92839001	     -0.51760296	     -0.00856177	     -0.16644322	     13.87072473	   -345.97668072	     -1.03165966	    -13.69827555	    -10.08329473	   -201.53303983	     26.66507792	   -347.56381117	      0.46539341	     -6.06613287	    -18.50016384	   -202.16929852	      4.28897317	    179.87373489	    -37.30232673	   -683.98735145	    -14.17064199	   -176.11510192	     -2.29129706	    -26.75967563	      1.29073647	     16.76144846	     -4.46682924	    -10.47189806	     -0.07796088	     -0.18276910	    -20.78844968	     89.00935373	      7.49195444	    279.35905306	    -52.61017093	   -606.03201078	    -13.26401318	   -178.38312312	      2.48082469	     29.80262128	     -5.25868200	   -104.74094413	      2.25989168	     26.43933847	      0.02476118	      7.55186733	      0.00529909	      1.15011721	     -1.09373647	    -15.30520450	      0.10675726	      0.34003887	      0.49044677	      9.53610224	      0.49053484	      1.21222060	      2.27152372	     26.00101088	      0.10458511	     -5.90083110	      0.01266860	     -0.08586071	     -1.11042903	    -15.81373379	      0.10343395	      2.00077309	      0.49860205	     11.37175851	      0.42336894	     12.88390494	     -0.00052347	     -0.00052347	      0.10349196	     -0.00052347	     -0.00052347	      0.13771313	     -0.00052347	     -0.00052347	     -0.00052347	      0.08780107	     -0.00052347	     -0.00052347	      0.07633844	     -0.00052347	      0.08414587	     -0.00052347	      0.04485776	     -0.00052347	      0.04933420	     -0.00052347	      0.04984383	     -0.00052347	      0.04154379	     -0.00052347	     -0.00052347	     -0.00052347	     -0.00052347	     -0.00052347	     -0.00052347	     -0.00052347	     -0.00052347	     -0.00052347	      0.03941340	     -0.00052347	     -0.00052347	     -0.00052347	      0.04809496	     -0.00052347	      0.05280497	     -0.00052347	      0.02431299	     -0.00052347	     -0.00052347	      0.07671221	     -0.00052347	     -0.00052347	      0.06060077	     -0.00052347	      0.20472497	     -0.00052347	      0.03709636	     -0.00052347	      0.09705259	     -0.00052347	      0.07763348	     -0.00052347	      0.03502161	     -0.00052347	      0.10042656	     -0.00052347	      0.09862476	     -0.00052347	      0.09858354	     -0.00052347	     -0.00052347	      0.12603173	     -0.00052347	     -0.00052347	      0.11889388	     -0.00052347	     -0.00052347	     -0.00052347	      0.08265825	     -0.00052347	     -0.00052347	      0.07663059	     -0.00052347	      0.08324271	     -0.00052347	      0.04440524	     -0.00052347	      0.04902187	     -0.00052347	      0.05624303	     -0.00052347	      0.04270658	     -0.00052347	     -0.00052347	     -0.00052347	     -0.00052347	     -0.00052347	     -0.00052347	     -0.00052347	     -0.00052347	     -0.00052347	      0.03413743	     -0.00052347	     -0.00052347	     -0.00052347	      0.04893434	     -0.00052347	      0.05343807	     -0.00052347	      0.02111792	     -0.00052347	     -0.00052347	      0.06760927	     -0.00052347	     -0.00052347	      0.05960290	     -0.00052347	      0.20501273	     -0.00052347	      0.03615329	     -0.00052347	      0.09881254	     -0.00052347	      0.07854190	     -0.00052347	      0.03340394	     -0.00052347	      0.07615134	     -0.00052347	      0.07573309	     -0.00052347	      0.07740600
      0.08218989	     12.01827648	    164.88020656	     -1.16700565	      8.95685186	      5.74061637	    112.47752415	      0.00165923	      0.01210585	      0.92815354	     -0.52358055	     -0.00863731	     -0.16612396	     13.71381643	   -344.88193045	     -1.03788973	    -13.73408873	    -10.17484215	   -201.54421876	     26.50729743	   -347.13439744	      0.46263962	     -6.05863818	    -18.59182734	   -201.41931502	      4.37085204	    180.63404996	    -37.61393538	   -688.01577552	    -14.25039963	   -175.05510832	     -2.30331656	    -26.15907271	      1.29826238	     16.37384194	     -4.47151155	    -10.15074913	     -0.07804260	     -0.17716399	    -20.74797730	     89.12112371	      7.61855315	    278.01512881	    -52.88628055	   -609.74112115	    -13.34482634	   -177.43334891	      2.49424270	     29.27426451	     -5.30623462	   -104.62998770	      2.27185157	     26.21951917	      0.02821764	      7.66682061	      0.00582433	      1.16247225	     -1.10066754	    -15.21181039	      0.10690590	      0.31438437	      0.49477144	      9.50491015	      0.49105422	      1.07444650	      2.28328285	     25.77387181	      0.10187597	     -6.02742734	      0.01262811	     -0.09243370	     -1.11759325	    -15.72980906	      0.10434376	      2.00509789	      0.50376810	     11.37385240	      0.42923824	     12.95826515	     -0.00058195	     -0.00058195	      0.10362832	     -0.00058195	     -0.00058195	      0.13758896	     -0.00058195	     -0.00058195	     -0.00058195	      0.08773366	     -0.00058195	     -0.00058195	      0.07636814	     -0.00058195	      0.08415029	     -0.00058195	      0.04483852	     -0.00058195	      0.04931438	     -0.00058195	      0.04983290	     -0.00058195	      0.04153274	     -0.00058195	     -0.00058195	     -0.00058195	     -0.00058195	     -0.00058195	     -0.00058195	     -0.00058195	     -0.00058195	     -0.00058195	      0.03935897	     -0.00058195	     -0.00058195	     -0.00058195	      0.04811324	     -0.00058195	      0.05281756	     -0.00058195	      0.02427606	     -0.00058195	     -0.00058195	      0.07669937	     -0.00058195	     -0.00058195	      0.06058193	     -0.00058195	      0.20470566	     -0.00058195	      0.03703604	     -0.00058195	      0.09711283	     -0.00058195	      0.07767373	     -0.00058195	      0.03497690	     -0.00058195	      0.10031511	     -0.00058195	      0.09850834	     -0.00058195	      0.09848456	     -0.00058195	     -0.00058195	      0.12610798	     -0.00058195	     -0.00058195	      0.11886827	     -0.00058195	     -0.00058195	     -0.00058195	      0.08261608	     -0.00058195	     -0.00058195	      0.07660573	     -0.00058195	      0.08317374	     -0.00058195	      0.04438554	     -0.00058195	      0.04901865	     -0.00058195	      0.05627043	     -0.00058195	      0.04266321	     -0.00058195	     -0.00058195	     -0.00058195	     -0.00058195	     -0.00058195	     -0.00058195	     -0.00058195	     -0.00058195	     -0.00058195	      0.03411778	     -0.00058195	     -0.00058195	     -0.00058195	      0.04898680	     -0.00058195	      0.05348775	     -0.00058195	      0.02110825	     -0.00058195	     -0.00058195	      0.06763699	     -0.00058195	     -0.00058195	      0.05956489	     -0.00058195	      0.20497614	     -0.00058195	      0.03609350	     -0.00058195	      0.09882133	     -0.00058195	      0.07849264	     -0.00058195	      0.03336836	     -0.00058195	      0.07614717	     -0.00058195	      0.07572966	     -0.00058195	      0.07740265
      0.08281425	     12.12085309	    163.70291581	     -1.16114454	      9.81838188	      5.81073129	    112.11710477	      0.00166671	      0.01187730	      0.92782407	     -0.53179693	     -0.00874088	     -0.16565703	     13.49896317	   -343.35444248	     -1.04648309	    -13.79392512	    -10.30067549	   -201.53234668	     26.29075466	   -346.51106691	      0.45886023	     -6.04775901	    -18.71725711	   -200.36577055	      4.48395295	    181.65723591	    -38.04523385	   -693.56356857	    -14.35924361	   -173.60855913	     -2.31938566	    -25.31208451	      1.30831643	     15.82978623	     -4.47772904	     -9.78076568	     -0.07815111	     -0.17070656	    -20.69245691	     88.59562778	      7.79146995	    275.82472833	    -53.26874882	   -615.55672720	    -13.45519904	   -176.12382835	      2.51228915	     28.53179475	     -5.37150938	   -104.46125601	      2.28812738	     25.91682913	      0.03305366	      7.82412917	      0.00655535	      1.17913470	     -1.11012452	    -15.08149854	      0.10709117	      0.27913713	      0.50069174	      9.45918728	      0.49166572	      0.88447075	      2.29927730	     25.46124823	      0.09805848	     -6.20088315	      0.01256753	     -0.10161003	     -1.12737774	    -15.61263944	      0.10559749	      2.01096405	      0.51086959	     11.37389403	      0.43736033	     13.05887090	     -0.00066233	     -0.00066233	      0.10381527	     -0.00066233	     -0.00066233	      0.13741941	     -0.00066233	     -0.00066233	     -0.00066233	      0.08764185	     -0.00066233	     -0.00066233	      0.07640834	     -0.00066233	      0.08415550	     -0.00066233	      0.04481188	     -0.00066233	      0.04928722	     -0.00066233	      0.04981816	     -0.00066233	      0.04151774	     -0.00066233	     -0.00066233	     -0.00066233	     -0.00066233	     -0.00066233	     -0.00066233	     -0.00066233	     -0.00066233	     -0.00066233	      0.03928392	     -0.00066233	     -0.00066233	     -0.00066233	      0.04813856	     -0.00066233	      0.05283509	     -0.00066233	      0.02422533	     -0.00066233	     -0.00066233	      0.07668096	     -0.00066233	     -0.00066233	      0.06055652	     -0.00066233	      0.20467973	     -0.00066233	      0.03695318	     -0.00066233	      0.09719399	     -0.00066233	      0.07772844	     -0.00066233	      0.03491529	     -0.00066233	      0.10016133	     -0.00066233	      0.09834837	     -0.00066233	      0.09834830	     -0.00066233	     -0.00066233	      0.12619880	     -0.00066233	     -0.00066233	      0.11883335	     -0.00066233	     -0.00066233	     -0.00066233	      0.08255846	     -0.00066233	     -0.00066233	      0.07657080	     -0.00066233	      0.08307841	     -0.00066233	      0.04435879	     -0.00066233	      0.04901471	     -0.00066233	      0.05630855	     -0.00066233	      0.04261950	     -0.00066233	     -0.00066233	     -0.00066233	     -0.00066233	     -0.00066233	     -0.00066233	     -0.00066233	     -0.00066233	     -0.00066233	      0.03409112	     -0.00066233	     -0.00066233	     -0.00066233	      0.04905861	     -0.00066233	      0.05355580	     -0.00066233	      0.02109509	     -0.00066233	     -0.00066233	      0.06767495	     -0.00066233	     -0.00066233	      0.05951297	     -0.00066233	      0.20492615	     -0.00066233	      0.03601138	     -0.00066233	      0.09883349	     -0.00066233	      0.07842483	     -0.00066233	      0.03331988	     -0.00066233	      0.07614167	     -0.00066233	      0.07572513	     -0.00066233	      0.07739822
      0.08328696	     12.19802450	    162.79949861	     -1.15634763	     10.47827065	      5.86366224	    111.82594566	      0.00167229	      0.01170681	      0.92757122	     -0.53802575	     -0.00881910	     -0.16528234	     13.33693353	   -342.17279691	     -1.05301684	    -13.85205977	    -10.39593583	   -201.50174354	     26.12707191	   -346.01022070	      0.45600343	     -6.03901760	    -18.81178011	   -199.54887553	      4.57000442	    182.41600723	    -38.37408411	   -697.77083547	    -14.44105171	   -172.51253659	     -2.33119526	    -24.64971936	      1.31570048	     15.41047941	     -4.48229625	     -9.54875196	     -0.07823083	     -0.16665716	    -20.65077409	     87.69002172	      7.92140985	    273.90045425	    -53.56088019	   -620.49727136	    -13.53821894	   -175.12343461	      2.52564037	     27.95315648	     -5.42085690	   -104.32169854	      2.30032418	     25.68638922	      0.03678035	      7.94315497	      0.00711567	      1.19151113	     -1.11722999	    -14.98063777	      0.10721680	      0.25236160	      0.50515447	      9.42167989	      0.49204959	      0.73939381	      2.31125698	     25.22335081	      0.09509619	     -6.33231105	      0.01251782	     -0.10875113	     -1.13473666	    -15.52185795	      0.10654914	      2.01536496	      0.51624563	     11.37117633	      0.44355119	     13.13389599	     -0.00072320	     -0.00072320	      0.10395657	     -0.00072320	     -0.00072320	      0.13729193	     -0.00072320	     -0.00072320	     -0.00072320	      0.08757300	     -0.00072320	     -0.00072320	      0.07643829	     -0.00072320	      0.08415879	     -0.00072320	      0.04479156	     -0.00072320	      0.04926674	     -0.00072320	      0.04980720	     -0.00072320	      0.04150653	     -0.00072320	     -0.00072320	     -0.00072320	     -0.00072320	     -0.00072320	     -0.00072320	     -0.00072320	     -0.00072320	     -0.00072320	      0.03922693	     -0.00072320	     -0.00072320	     -0.00072320	      0.04815788	     -0.00072320	      0.05284854	     -0.00072320	      0.02418694	     -0.00072320	     -0.00072320	      0.07666644	     -0.00072320	     -0.00072320	      0.06053766	     -0.00072320	      0.20466056	     -0.00072320	      0.03689049	     -0.00072320	      0.09725418	     -0.00072320	      0.07776938	     -0.00072320	      0.03486851	     -0.00072320	      0.10004445	     -0.00072320	      0.09822732	     -0.00072320	      0.09824496	     -0.00072320	     -0.00072320	      0.12628339	     -0.00072320	     -0.00072320	      0.11880711	     -0.00072320	     -0.00072320	     -0.00072320	      0.08251510	     -0.00072320	     -0.00072320	      0.07654383	     -0.00072320	      0.08300591	     -0.00072320	      0.04433878	     -0.00072320	      0.04901209	     -0.00072320	      0.05633761	     -0.00072320	      0.04259680	     -0.00072320	     -0.00072320	     -0.00072320	     -0.00072320	     -0.00072320	     -0.00072320	     -0.00072320	     -0.00072320	     -0.00072320	      0.03407121	     -0.00072320	     -0.00072320	     -0.00072320	      0.04911265	     -0.00072320	      0.05360707	     -0.00072320	      0.02108524	     -0.00072320	     -0.00072320	      0.06770357	     -0.00072320	     -0.00072320	      0.05947391	     -0.00072320	      0.20488853	     -0.00072320	      0.03594925	     -0.00072320	      0.09884276	     -0.00072320	      0.07837356	     -0.00072320	      0.03328350	     -0.00072320	      0.07613766	     -0.00072320	      0.07572183	     -0.00072320	      0.07739499
